<svg xmlns="http://www.w3.org/2000/svg" xmlns:svg="http://www.w3.org/2000/svg" xmlns:xlink="http://www.w3.org/1999/xlink" id="svg249" width="22" height="22" version="1.0"><defs id="defs3"><linearGradient id="linearGradient6536"><stop id="stop6538" offset="0" stop-color="#000" stop-opacity="1"/><stop id="stop6540" offset="1" stop-color="#000" stop-opacity="0"/></linearGradient><linearGradient id="linearGradient7520"><stop id="stop7522" offset="0" stop-color="#fff" stop-opacity="1"/><stop id="stop7524" offset="1" stop-color="#fff" stop-opacity="0"/></linearGradient><linearGradient id="linearGradient7498"><stop id="stop7500" offset="0" stop-color="#fff" stop-opacity="1"/><stop id="stop7502" offset="1" stop-color="#babdb6" stop-opacity="1"/></linearGradient><linearGradient id="linearGradient7419"><stop id="stop7421" offset="0" stop-color="#fff" stop-opacity="1"/><stop id="stop7423" offset="1" stop-color="#fff" stop-opacity="0"/></linearGradient><linearGradient id="linearGradient7403"><stop id="stop7405" offset="0" stop-color="#e9b96e" stop-opacity="1"/><stop id="stop7407" offset="1" stop-color="#c17d11" stop-opacity="1"/></linearGradient><linearGradient id="linearGradient4537"><stop id="stop6075" offset="0" stop-color="#fff" stop-opacity="1"/><stop id="stop6073" offset="1" stop-color="#e6e6e6" stop-opacity="1"/></linearGradient><linearGradient id="linearGradient2322"><stop id="stop2324" offset="0" stop-color="#fff" stop-opacity="1"/><stop id="stop2326" offset="1" stop-color="#c1c7bc" stop-opacity="1"/></linearGradient><linearGradient id="linearGradient7196"><stop id="stop7198" offset="0" stop-color="#ce5c00" stop-opacity="1"/><stop id="stop7200" offset="1" stop-color="#f57900" stop-opacity="1"/></linearGradient><linearGradient id="linearGradient7229"><stop id="stop7231" offset="0" stop-color="#000" stop-opacity="1"/><stop id="stop7233" offset="1" stop-color="#000" stop-opacity="0"/></linearGradient><radialGradient id="radialGradient5505" cx="9.449" cy="16.664" r="17.709" fx="9.449" fy="16.664" gradientTransform="matrix(0.5650555,0,0,0.5973401,2.5696638,-0.541451)" gradientUnits="userSpaceOnUse" xlink:href="#linearGradient2322"/><linearGradient id="linearGradient5507" x1="6.854" x2="8.361" y1="3.533" y2="12.75" gradientUnits="userSpaceOnUse" xlink:href="#linearGradient7196"/><linearGradient id="linearGradient5509" x1="6.883" x2="6.883" y1="2.471" y2="16.866" gradientUnits="userSpaceOnUse" xlink:href="#linearGradient7229"/><radialGradient id="radialGradient5515" cx="8.5" cy="3.507" r="1.5" fx="8.5" fy="3.507" gradientTransform="matrix(2.5003472,0,0,1.3125,-4.752951,-2.8647461)" gradientUnits="userSpaceOnUse" xlink:href="#linearGradient7498"/><radialGradient id="radialGradient5522" cx="8.5" cy="3.507" r="1.5" fx="8.5" fy="3.507" gradientTransform="matrix(2.5003472,0,0,1.3125,-8.752951,-2.8647461)" gradientUnits="userSpaceOnUse" xlink:href="#linearGradient7498"/><linearGradient id="linearGradient5526" x1="3.125" x2="14.313" y1="2.313" y2="31.188" gradientTransform="matrix(0.7058824,0,0,0.75,6.7352939,-0.125)" gradientUnits="userSpaceOnUse" xlink:href="#linearGradient7419"/><linearGradient id="linearGradient5531" x1="37.271" x2="31.705" y1="27.273" y2="18.099" gradientTransform="matrix(0.3065766,0,0,0.4511462,6.9888995,-1.845087)" gradientUnits="userSpaceOnUse" xlink:href="#linearGradient4537"/><linearGradient id="linearGradient5534" x1="18.385" x2="-7.204" y1="24.652" y2="-13.267" gradientTransform="matrix(0.7368421,0,0,0.7777778,6.3947367,-0.4444444)" gradientUnits="userSpaceOnUse" xlink:href="#linearGradient7403"/><radialGradient id="radialGradient5536" cx="13" cy="2.5" r=".5" fx="13" fy="2.5" gradientUnits="userSpaceOnUse" xlink:href="#linearGradient7520"/><radialGradient id="radialGradient5538" cx="13" cy="2.5" r=".5" fx="13" fy="2.5" gradientUnits="userSpaceOnUse" xlink:href="#linearGradient7520"/><radialGradient id="radialGradient6542" cx="7.938" cy="18.313" r="7.563" fx="7.938" fy="18.313" gradientTransform="matrix(1,0,0,0.3801653,0,11.350723)" gradientUnits="userSpaceOnUse" xlink:href="#linearGradient6536"/></defs><metadata id="metadata4"/><g id="layer5" display="inline"><rect id="rect6544" width="11.733" height="2.999" x="9.767" y="14.001" fill="#000" fill-opacity="1" stroke="none" stroke-dasharray="none" stroke-dashoffset=".7" stroke-linecap="round" stroke-linejoin="miter" stroke-miterlimit="4" stroke-opacity="1" stroke-width="1" opacity=".1"/><path id="rect7401" fill="url(#linearGradient5534)" fill-opacity="1" fill-rule="evenodd" stroke="#8f5902" stroke-linecap="round" stroke-linejoin="round" stroke-miterlimit="4" stroke-opacity=".992" stroke-width="1" d="M 8.1104918,1.5 L 20.889508,1.5 C 21.22772,1.5 21.499999,1.7874061 21.499999,2.1444081 L 21.499999,14.855592 C 21.499999,15.212594 21.22772,15.5 20.889508,15.5 L 8.1104918,15.5 C 7.7722792,15.5 7.4999998,15.212594 7.4999998,14.855592 L 7.4999998,2.1444081 C 7.4999998,1.7874061 7.7722792,1.5 8.1104918,1.5 z"/><path id="path3660" fill="url(#linearGradient5531)" fill-opacity="1" fill-rule="evenodd" stroke="#555753" stroke-dasharray="none" stroke-dashoffset="0" stroke-linecap="butt" stroke-linejoin="miter" stroke-miterlimit="4" stroke-opacity="1" stroke-width="1" marker-end="none" marker-mid="none" marker-start="none" d="M 9.5000001,3.5 L 19.499999,3.5 L 19.499999,13.5 L 9.5000001,13.5 L 9.5000001,3.5 z" color="#000" display="block" overflow="visible" visibility="visible" style="marker:none"/><path id="path4545" fill="none" fill-opacity="1" fill-rule="evenodd" stroke="#fff" stroke-dasharray="none" stroke-dashoffset="0" stroke-linecap="butt" stroke-linejoin="miter" stroke-miterlimit="4" stroke-opacity="1" stroke-width="1" marker-end="none" marker-mid="none" marker-start="none" d="M 10.5,4.4999999 L 18.499999,4.4999999 L 18.499999,11.500001 L 10.5,11.500001 L 10.5,4.4999999 z" color="#000" display="block" overflow="visible" visibility="visible" style="marker:none"/><rect id="rect7397" width="9" height="1" x="10" y="12" fill="#d3d7cf" fill-opacity="1" fill-rule="evenodd" stroke="none" stroke-dasharray="none" stroke-linecap="round" stroke-linejoin="round" stroke-miterlimit="4" stroke-opacity=".992" stroke-width="1.5"/><path id="path7415" fill="none" fill-opacity="1" fill-rule="evenodd" stroke="url(#linearGradient5526)" stroke-linecap="round" stroke-linejoin="round" stroke-miterlimit="4" stroke-opacity=".992" stroke-width="1" d="M 8.4999998,2.5 L 8.4999998,14.5 L 20.499999,14.5 L 20.499999,2.5 L 8.4999998,2.5 z" display="inline" opacity=".287"/><path id="path7034" fill="#fff" fill-opacity="1" fill-rule="evenodd" stroke="none" stroke-dasharray="none" stroke-linecap="round" stroke-linejoin="round" stroke-miterlimit="4" stroke-opacity=".992" stroke-width="1" d="M 7.078125 5.09375 A 1.4921875 1.046875 0 1 1 4.09375,5.09375 A 1.4921875 1.046875 0 1 1 7.078125 5.09375 z" transform="matrix(1.0104712,0,0,0.9552239,6.8633835,0.1343283)"/><rect id="rect7427" width="2" height="3.938" x="11.5" y=".5" fill="url(#radialGradient5522)" fill-opacity="1" fill-rule="evenodd" stroke="#888a85" stroke-dasharray="none" stroke-linecap="round" stroke-linejoin="round" stroke-miterlimit="4" stroke-opacity=".992" stroke-width="1" rx=".829" ry=".466"/><path id="text7433" fill="#000" fill-opacity="1" stroke="none" stroke-linecap="butt" stroke-linejoin="miter" stroke-opacity="1" stroke-width="1" d="M 15.746694,8.448286 C 16.140044,8.514998 16.446589,8.653798 16.666328,8.864684 C 16.888771,9.075575 16.999996,9.335957 17,9.645833 C 16.999996,10.12141 16.793824,10.349044 16.381486,10.609426 C 15.969139,10.869809 15.383178,11 14.623602,11 C 14.368598,11 14.105458,10.979556 13.834182,10.93867 C 13.565615,10.899936 13.287555,10.840757 13.000001,10.761136 L 13.000001,10.131699 C 13.227873,10.237144 13.477449,10.316764 13.748729,10.370562 C 14.020006,10.424361 14.303491,10.451259 14.599186,10.451259 C 15.114613,10.451259 15.50661,10.370564 15.775179,10.209167 C 16.046453,10.047774 16.182092,9.95356 16.182096,9.645833 C 16.182092,9.361781 16.055948,9.140133 15.803662,8.980888 C 15.554084,8.819496 15.205491,8.738798 14.757885,8.738796 L 14.049848,8.738796 L 14.049848,8.202966 L 14.790438,8.202966 C 15.19464,8.20297 15.503897,8.139488 15.71821,8.012521 C 15.932516,7.883409 16.039671,7.557998 16.039675,7.316979 C 16.039671,7.069511 15.928447,6.880142 15.706003,6.74887 C 15.486264,6.615455 15.170225,6.548745 14.757885,6.548741 C 14.532721,6.548745 14.291284,6.568113 14.033571,6.606843 C 13.775855,6.645582 13.49237,6.705836 13.183113,6.787605 L 13.183113,6.206585 C 13.495082,6.137728 13.786706,6.086082 14.057986,6.051646 C 14.331975,6.01722 14.589689,6.000005 14.83113,6 C 15.455067,6.000005 15.948793,6.112981 16.31231,6.338928 C 16.675818,6.562733 16.857575,6.866155 16.857579,7.249193 C 16.857575,7.516036 16.761271,7.882333 16.568668,8.067395 C 16.376056,8.250312 16.102065,8.377275 15.746694,8.448286" font-family="Bitstream Vera Sans" font-size="8.131" font-style="normal" font-weight="normal"/><path id="path7516" fill="#fff" fill-opacity="1" fill-rule="evenodd" stroke="none" stroke-dasharray="none" stroke-linecap="round" stroke-linejoin="round" stroke-miterlimit="4" stroke-opacity=".992" stroke-width="1" d="M 13.5 2.5 A 0.5 0.5 0 1 1 12.5,2.5 A 0.5 0.5 0 1 1 13.5 2.5 z" display="inline" transform="translate(-1,0)"/><path id="path7528" fill="url(#radialGradient5536)" fill-opacity="1" fill-rule="evenodd" stroke="none" stroke-dasharray="none" stroke-linecap="round" stroke-linejoin="round" stroke-miterlimit="4" stroke-opacity=".992" stroke-width="1" d="M 13.5 2.5 A 0.5 0.5 0 1 1 12.5,2.5 A 0.5 0.5 0 1 1 13.5 2.5 z" display="inline" opacity=".601" transform="matrix(3,0,0,3,-26.5,-5)"/><path id="path7036" fill="#fff" fill-opacity="1" fill-rule="evenodd" stroke="none" stroke-dasharray="none" stroke-linecap="round" stroke-linejoin="round" stroke-miterlimit="4" stroke-opacity=".992" stroke-width="1" d="M 7.078125 5.09375 A 1.4921875 1.046875 0 1 1 4.09375,5.09375 A 1.4921875 1.046875 0 1 1 7.078125 5.09375 z" display="inline" transform="matrix(1.0104712,0,0,0.9552239,10.863383,0.1343283)"/><path id="path5565" fill="url(#radialGradient6542)" fill-opacity="1" stroke="none" stroke-dasharray="none" stroke-dashoffset=".7" stroke-linecap="round" stroke-linejoin="miter" stroke-miterlimit="4" stroke-opacity="1" stroke-width="1" d="M 15.5 18.3125 A 7.5625 2.875 0 1 1 0.375,18.3125 A 7.5625 2.875 0 1 1 15.5 18.3125 z" opacity=".565" transform="matrix(0.9917355,0,0,1.0434781,-0.3719008,-0.1086936)"/><path id="path5540" fill="#fcaf3e" fill-opacity="1" fill-rule="evenodd" stroke="#ce5c00" stroke-dasharray="none" stroke-dashoffset=".7" stroke-linecap="round" stroke-linejoin="miter" stroke-miterlimit="10" stroke-opacity="1" stroke-width=".974" d="M 20.5 10.5 A 10 10 0 1 1 0.5,10.5 A 10 10 0 1 1 20.5 10.5 z" display="inline" transform="matrix(0.7183841,0,0,0.7184075,-2.8517487e-2,5.9705856)"/><g id="g7895" transform="matrix(1.0054731,0,0,1.0047591,-1.037906,4.9745221)"><path id="path7845" fill="#fcaf3e" fill-opacity="1" fill-rule="evenodd" stroke="#ce5c00" stroke-dasharray="none" stroke-dashoffset=".7" stroke-linecap="round" stroke-linejoin="miter" stroke-miterlimit="10" stroke-opacity="1" stroke-width=".974" d="M 20.5 10.5 A 10 10 0 1 1 0.5,10.5 A 10 10 0 1 1 20.5 10.5 z" transform="matrix(0.7144737,0,0,0.7150047,1.0038941,0.9913456)"/><path id="path7847" fill="url(#radialGradient5505)" fill-opacity="1" stroke="url(#linearGradient5507)" stroke-dasharray="none" stroke-linecap="round" stroke-linejoin="round" stroke-miterlimit="4" stroke-opacity="1" stroke-width="1.309" d="M 15.092248 10.078017 A 6.4298334 7.0996075 0 1 1 2.2325811,10.078017 A 6.4298334 7.0996075 0 1 1 15.092248 10.078017 z" transform="matrix(0.7985149,0,0,0.7237207,1.5888012,1.205224)"/><path id="path7855" fill="none" fill-opacity="1" stroke="url(#linearGradient5509)" stroke-dasharray="none" stroke-linecap="round" stroke-linejoin="round" stroke-miterlimit="4" stroke-opacity="1" stroke-width="1.6" d="M 15.092248 10.078017 A 6.4298334 7.0996075 0 1 1 2.2325811,10.078017 A 6.4298334 7.0996075 0 1 1 15.092248 10.078017 z" opacity=".1" transform="matrix(0.6533303,0,0,0.5921351,2.8464506,2.5313467)"/></g><rect id="rect5553" width="1" height="1.016" x="8" y="13.984" fill="#2e3436" fill-opacity="1" stroke="none" stroke-dasharray="none" stroke-dashoffset=".7" stroke-linecap="round" stroke-linejoin="miter" stroke-miterlimit="4" stroke-opacity="0" stroke-width="3.5" opacity="1"/><path id="path7853" fill="#888a85" fill-opacity="1" fill-rule="evenodd" stroke="#2e3436" stroke-dasharray="none" stroke-dashoffset=".7" stroke-linecap="round" stroke-linejoin="miter" stroke-miterlimit="10" stroke-opacity="1" stroke-width=".852" d="M 11.5 10.5 A 1 1 0 1 1 9.5,10.5 A 1 1 0 1 1 11.5 10.5 z" transform="matrix(0.8218753,0,0,0.8218753,-1.1296907,4.8703093)"/><rect id="rect6044" width="2" height="3.938" x="15.5" y=".5" fill="url(#radialGradient5515)" fill-opacity="1" fill-rule="evenodd" stroke="#888a85" stroke-dasharray="none" stroke-linecap="round" stroke-linejoin="round" stroke-miterlimit="4" stroke-opacity=".992" stroke-width="1" display="inline" rx=".829" ry=".466"/><path id="path6046" fill="#fff" fill-opacity="1" fill-rule="evenodd" stroke="none" stroke-dasharray="none" stroke-linecap="round" stroke-linejoin="round" stroke-miterlimit="4" stroke-opacity=".992" stroke-width="1" d="M 13.5 2.5 A 0.5 0.5 0 1 1 12.5,2.5 A 0.5 0.5 0 1 1 13.5 2.5 z" display="inline" transform="translate(3,0)"/><path id="path6048" fill="url(#radialGradient5538)" fill-opacity="1" fill-rule="evenodd" stroke="none" stroke-dasharray="none" stroke-linecap="round" stroke-linejoin="round" stroke-miterlimit="4" stroke-opacity=".992" stroke-width="1" d="M 13.5 2.5 A 0.5 0.5 0 1 1 12.5,2.5 A 0.5 0.5 0 1 1 13.5 2.5 z" display="inline" opacity=".601" transform="matrix(3,0,0,3,-22.5,-5)"/><path id="rect6062" fill="#eeeeec" fill-opacity="1" fill-rule="evenodd" stroke="#888a85" stroke-linecap="round" stroke-linejoin="round" stroke-miterlimit="4" stroke-opacity=".992" stroke-width="1" d="M 18.964957,11.500001 L 17.512942,11.500001 L 17.512942,9.503792 L 18.964957,9.503792"/><rect id="rect5555" width="1" height="1.016" x="7" y="12.984" fill="#888a85" fill-opacity="1" stroke="none" stroke-dasharray="none" stroke-dashoffset=".7" stroke-linecap="round" stroke-linejoin="miter" stroke-miterlimit="4" stroke-opacity="0" stroke-width="3.5" display="inline" opacity="1"/><rect id="rect5559" width="1" height="1.016" x="9" y="14.984" fill="#2e3436" fill-opacity="1" stroke="none" stroke-dasharray="none" stroke-dashoffset=".7" stroke-linecap="round" stroke-linejoin="miter" stroke-miterlimit="4" stroke-opacity="0" stroke-width="3.5" display="inline" opacity="1"/><rect id="rect5563" width="3" height="1.016" x="8" y="12.984" fill="#2e3436" fill-opacity="1" stroke="none" stroke-dasharray="none" stroke-dashoffset=".7" stroke-linecap="round" stroke-linejoin="miter" stroke-miterlimit="4" stroke-opacity="0" stroke-width="3.5" display="inline" opacity="1"/></g></svg>