<svg xmlns="http://www.w3.org/2000/svg" xmlns:svg="http://www.w3.org/2000/svg" xmlns:xlink="http://www.w3.org/1999/xlink" id="svg249" width="32" height="32" version="1.0"><defs id="defs3"><linearGradient id="linearGradient7520"><stop id="stop7522" offset="0" stop-color="#fff" stop-opacity="1"/><stop id="stop7524" offset="1" stop-color="#fff" stop-opacity="0"/></linearGradient><linearGradient id="linearGradient7498"><stop id="stop7500" offset="0" stop-color="#fff" stop-opacity="1"/><stop id="stop7502" offset="1" stop-color="#babdb6" stop-opacity="1"/></linearGradient><linearGradient id="linearGradient7419"><stop id="stop7421" offset="0" stop-color="#fff" stop-opacity="1"/><stop id="stop7423" offset="1" stop-color="#fff" stop-opacity="0"/></linearGradient><linearGradient id="linearGradient7403"><stop id="stop7405" offset="0" stop-color="#e9b96e" stop-opacity="1"/><stop id="stop7407" offset="1" stop-color="#c17d11" stop-opacity="1"/></linearGradient><linearGradient id="linearGradient4537"><stop id="stop6075" offset="0" stop-color="#fff" stop-opacity="1"/><stop id="stop6073" offset="1" stop-color="#e6e6e6" stop-opacity="1"/></linearGradient><linearGradient id="linearGradient2224"><stop id="stop2226" offset="0" stop-color="#7c7c7c" stop-opacity="1"/><stop id="stop2228" offset="1" stop-color="#b8b8b8" stop-opacity="1"/></linearGradient><linearGradient id="linearGradient2251"><stop id="stop2253" offset="0" stop-color="#fff" stop-opacity="1"/><stop id="stop2255" offset="1" stop-color="#fff" stop-opacity="0"/></linearGradient><linearGradient id="linearGradient3428"><stop id="stop3430" offset="0" stop-color="#000" stop-opacity="0"/><stop id="stop3436" offset=".5" stop-color="#000" stop-opacity="1"/><stop id="stop3432" offset="1" stop-color="#000" stop-opacity="0"/></linearGradient><linearGradient id="linearGradient3414"><stop id="stop3416" offset="0" stop-color="#000" stop-opacity="1"/><stop id="stop3418" offset="1" stop-color="#000" stop-opacity="0"/></linearGradient><linearGradient id="linearGradient2322"><stop id="stop2324" offset="0" stop-color="#fff" stop-opacity="1"/><stop id="stop2326" offset="1" stop-color="#c1c7bc" stop-opacity="1"/></linearGradient><linearGradient id="linearGradient6917"><stop id="stop6919" offset="0" stop-color="#000" stop-opacity="1"/><stop id="stop6921" offset="1" stop-color="#000" stop-opacity="0"/></linearGradient><linearGradient id="linearGradient7196"><stop id="stop7198" offset="0" stop-color="#ce5c00" stop-opacity="1"/><stop id="stop7200" offset="1" stop-color="#f57900" stop-opacity="1"/></linearGradient><linearGradient id="linearGradient7229"><stop id="stop7231" offset="0" stop-color="#000" stop-opacity="1"/><stop id="stop7233" offset="1" stop-color="#000" stop-opacity="0"/></linearGradient><radialGradient id="radialGradient5591" cx="16" cy="27.875" r="12.125" fx="16" fy="27.875" gradientTransform="matrix(1,0,0,0.2886598,0,19.828608)" gradientUnits="userSpaceOnUse" xlink:href="#linearGradient6917"/><linearGradient id="linearGradient5593" x1="6.883" x2="6.883" y1="2.471" y2="16.866" gradientUnits="userSpaceOnUse" xlink:href="#linearGradient7229"/><radialGradient id="radialGradient5595" cx="9.449" cy="16.664" r="17.709" fx="9.449" fy="16.664" gradientTransform="matrix(0.5650555,0,0,0.5973401,2.5696638,-0.541451)" gradientUnits="userSpaceOnUse" xlink:href="#linearGradient2322"/><linearGradient id="linearGradient5597" x1="6.854" x2="8.361" y1="3.533" y2="12.75" gradientUnits="userSpaceOnUse" xlink:href="#linearGradient7196"/><radialGradient id="radialGradient6654" cx="3" cy="43" r="2" fx="3" fy="43" gradientTransform="matrix(2,0,0,2,-13,-129)" gradientUnits="userSpaceOnUse" xlink:href="#linearGradient3414"/><radialGradient id="radialGradient6656" cx="3" cy="43" r="2" fx="3" fy="43" gradientTransform="matrix(2,0,0,2,35,-43)" gradientUnits="userSpaceOnUse" xlink:href="#linearGradient3414"/><linearGradient id="linearGradient6658" x1="11.508" x2="11.508" y1="39" y2="47.016" gradientUnits="userSpaceOnUse" xlink:href="#linearGradient3428"/><linearGradient id="linearGradient6660" x1="18.385" x2="-7.204" y1="24.652" y2="-13.267" gradientTransform="translate(10,0)" gradientUnits="userSpaceOnUse" xlink:href="#linearGradient7403"/><linearGradient id="linearGradient6662" x1="37.271" x2="31.705" y1="27.273" y2="18.099" gradientTransform="matrix(0.459865,0,0,0.6334093,9.733349,-3.0045023)" gradientUnits="userSpaceOnUse" xlink:href="#linearGradient4537"/><linearGradient id="linearGradient6664" x1="35.997" x2="33.665" y1="40.458" y2="37.771" gradientTransform="matrix(0.300009,0,0,0.287194,16.672804,4.446934)" gradientUnits="userSpaceOnUse" xlink:href="#linearGradient2224"/><linearGradient id="linearGradient6666" x1="33.396" x2="34.17" y1="36.921" y2="38.07" gradientTransform="matrix(0.26971,0,0,0.254566,18.020674,5.771734)" gradientUnits="userSpaceOnUse" xlink:href="#linearGradient2251"/><linearGradient id="linearGradient6668" x1="3.125" x2="14.313" y1="2.313" y2="31.188" gradientTransform="translate(10,0)" gradientUnits="userSpaceOnUse" xlink:href="#linearGradient7419"/><radialGradient id="radialGradient6670" cx="8.5" cy="3.507" r="1.5" fx="8.5" fy="3.507" gradientTransform="matrix(2.5003472,0,0,2.3333334,-3.752951,-5.4817709)" gradientUnits="userSpaceOnUse" xlink:href="#linearGradient7498"/><radialGradient id="radialGradient6672" cx="8.5" cy="3.507" r="1.5" fx="8.5" fy="3.507" gradientTransform="matrix(2.5003472,0,0,2.3333334,3.247049,-5.4817709)" gradientUnits="userSpaceOnUse" xlink:href="#linearGradient7498"/><radialGradient id="radialGradient6674" cx="13" cy="2.5" r=".5" fx="13" fy="2.5" gradientUnits="userSpaceOnUse" xlink:href="#linearGradient7520"/><radialGradient id="radialGradient6676" cx="13" cy="2.5" r=".5" fx="13" fy="2.5" gradientUnits="userSpaceOnUse" xlink:href="#linearGradient7520"/></defs><metadata id="metadata4"/><g id="layer5" display="inline"><path id="path7223" fill="url(#radialGradient5591)" fill-opacity="1" fill-rule="nonzero" stroke="none" stroke-dasharray="none" stroke-dashoffset="0" stroke-linecap="butt" stroke-linejoin="miter" stroke-miterlimit="4" stroke-opacity="1" stroke-width="1" marker-end="none" marker-mid="none" marker-start="none" d="M 28.125 27.875 A 12.125 3.5 0 1 1 3.875,27.875 A 12.125 3.5 0 1 1 28.125 27.875 z" color="#000" display="inline" opacity=".4" overflow="visible" transform="matrix(0.9484536,0,0,1,-3.6752575,-0.375001)" visibility="visible" style="marker:none"/><path id="path7204" fill="#fcaf3e" fill-opacity="1" fill-rule="evenodd" stroke="#ce5c00" stroke-dasharray="none" stroke-dashoffset=".7" stroke-linecap="round" stroke-linejoin="miter" stroke-miterlimit="10" stroke-opacity="1" stroke-width=".69" d="M 20.5 10.5 A 10 10 0 1 1 0.5,10.5 A 10 10 0 1 1 20.5 10.5 z" transform="matrix(1.015,0,0,1.015,0.8425002,8.8425)"/><g id="g6630" transform="translate(0,1)"><g id="g7484" display="inline" opacity=".332" transform="matrix(0.5238733,0,0,0.5,8.4257015,-1.5)"><rect id="rect7486" width="4" height="8" x="-7" y="-47" fill="url(#radialGradient6654)" fill-opacity="1" fill-rule="nonzero" stroke="none" stroke-dasharray="none" stroke-dashoffset="1.4" stroke-linecap="square" stroke-linejoin="round" stroke-miterlimit="6" stroke-opacity="1" stroke-width="1" marker-end="none" marker-mid="none" marker-start="none" color="#000" display="inline" opacity="1" overflow="visible" transform="scale(-1,-1)" visibility="visible" style="marker:none"/><rect id="rect7488" width="4" height="8" x="41" y="39" fill="url(#radialGradient6656)" fill-opacity="1" fill-rule="nonzero" stroke="none" stroke-dasharray="none" stroke-dashoffset="1.4" stroke-linecap="square" stroke-linejoin="round" stroke-miterlimit="6" stroke-opacity="1" stroke-width="1" marker-end="none" marker-mid="none" marker-start="none" color="#000" display="inline" opacity="1" overflow="visible" visibility="visible" style="marker:none"/><rect id="rect7490" width="34" height="8" x="7" y="39" fill="url(#linearGradient6658)" fill-opacity="1" fill-rule="nonzero" stroke="none" stroke-dasharray="none" stroke-dashoffset="1.4" stroke-linecap="square" stroke-linejoin="round" stroke-miterlimit="6" stroke-opacity="1" stroke-width="1" marker-end="none" marker-mid="none" marker-start="none" color="#000" display="inline" opacity="1" overflow="visible" visibility="visible" style="marker:none"/></g><path id="rect7401" fill="url(#linearGradient6660)" fill-opacity="1" fill-rule="evenodd" stroke="#8f5902" stroke-linecap="round" stroke-linejoin="round" stroke-miterlimit="4" stroke-opacity=".992" stroke-width="1" d="M 12.328525,2.5 L 29.671475,2.5 C 30.130478,2.5 30.5,2.869522 30.5,3.3285246 L 30.5,19.671475 C 30.5,20.130478 30.130478,20.5 29.671475,20.5 L 12.328525,20.5 C 11.869522,20.5 11.5,20.130478 11.5,19.671475 L 11.5,3.3285246 C 11.5,2.869522 11.869522,2.5 12.328525,2.5 z"/><path id="path3660" fill="url(#linearGradient6662)" fill-opacity="1" fill-rule="evenodd" stroke="#555753" stroke-dasharray="none" stroke-dashoffset="0" stroke-linecap="butt" stroke-linejoin="miter" stroke-miterlimit="4" stroke-opacity="1" stroke-width="1" marker-end="none" marker-mid="none" marker-start="none" d="M 13.5,4.5000002 L 28.5,4.5000002 L 28.5,18.540001 L 13.5,18.540001 L 13.5,4.5000002 z" color="#000" display="block" overflow="visible" visibility="visible" style="marker:none"/><path id="path4545" fill="none" fill-opacity="1" fill-rule="evenodd" stroke="#fff" stroke-dasharray="none" stroke-dashoffset="0" stroke-linecap="butt" stroke-linejoin="miter" stroke-miterlimit="4" stroke-opacity="1" stroke-width="1" marker-end="none" marker-mid="none" marker-start="none" d="M 14.5,5.5 L 27.5,5.5 L 27.5,16.5 L 14.5,16.5 L 14.5,5.5 z" color="#000" display="block" overflow="visible" visibility="visible" style="marker:none"/><path stroke-width="1.5" style="marker:none" id="path6077" fill="#000" fill-opacity="1" fill-rule="evenodd" stroke="none" stroke-dasharray="none" stroke-dashoffset="0" stroke-linecap="round" stroke-linejoin="miter" stroke-miterlimit="4" stroke-opacity="1" marker-end="none" marker-mid="none" marker-start="none" d="M 28,17 L 28,14.5 L 25.5,17 L 28,17 z" color="#000" display="block" opacity=".209" overflow="visible" visibility="visible"/><path id="path5275" fill="url(#linearGradient6664)" fill-opacity="1" fill-rule="evenodd" stroke="#868a84" stroke-dasharray="none" stroke-dashoffset="0" stroke-linecap="butt" stroke-linejoin="miter" stroke-miterlimit="4" stroke-opacity="1" stroke-width="1" marker-end="none" marker-mid="none" marker-start="none" d="M 25.5,16.5 C 26.452081,16.560012 28.675794,15.595825 28.476182,14.108978 C 28.007187,14.804873 27.048584,14.443792 25.81592,14.489456 C 25.81592,14.489456 25.906202,16.286944 25.5,16.5 z" color="#000" display="inline" overflow="visible" visibility="visible" style="marker:none"/><path id="path5277" fill="none" fill-opacity="1" fill-rule="evenodd" stroke="url(#linearGradient6666)" stroke-dasharray="none" stroke-dashoffset="0" stroke-linecap="butt" stroke-linejoin="miter" stroke-miterlimit="4" stroke-opacity="1" stroke-width="1" marker-end="none" marker-mid="none" marker-start="none" d="M 26.519117,16.129281 C 26.888558,15.955201 27.713459,15.582863 28.063918,15.104023 C 27.617205,15.200184 27.28509,15.12657 26.542163,15.121712 C 26.542163,15.121712 26.569719,15.931999 26.519117,16.129281 z" color="#000" display="inline" opacity=".369" overflow="visible" visibility="visible" style="marker:none"/><rect id="rect7397" width="14" height="1" x="14" y="17" fill="#d3d7cf" fill-opacity="1" fill-rule="evenodd" stroke="none" stroke-dasharray="none" stroke-linecap="round" stroke-linejoin="round" stroke-miterlimit="4" stroke-opacity=".992" stroke-width="1.5"/><path id="path7415" fill="none" fill-opacity="1" fill-rule="evenodd" stroke="url(#linearGradient6668)" stroke-linecap="round" stroke-linejoin="round" stroke-miterlimit="4" stroke-opacity=".992" stroke-width="1" d="M 12.5,3.5 L 12.5,19.5 L 29.5,19.5 L 29.5,3.5 L 12.5,3.5 z" display="inline" opacity=".287"/><path id="path7510" fill="none" fill-opacity="1" fill-rule="evenodd" stroke="#fff" stroke-dasharray="none" stroke-linecap="round" stroke-linejoin="round" stroke-miterlimit="4" stroke-opacity=".992" stroke-width="1.155" d="M 10.5 7 A 2 1.5 0 1 1 6.5,7 A 2 1.5 0 1 1 10.5 7 z" transform="matrix(0.75,0,0,1,11.125,0)"/><rect id="rect7427" width="2" height="7" x="16.5" y=".5" fill="url(#radialGradient6670)" fill-opacity="1" fill-rule="evenodd" stroke="#888a85" stroke-dasharray="none" stroke-linecap="round" stroke-linejoin="round" stroke-miterlimit="4" stroke-opacity=".992" stroke-width="1" rx=".829" ry=".829"/><path id="text7433" fill="#2e3436" fill-opacity="1" stroke="none" stroke-linecap="butt" stroke-linejoin="miter" stroke-opacity="1" stroke-width="1" d="M 21.746694,11.562944 C 22.140044,11.642998 22.446589,11.809558 22.666328,12.062621 C 22.888771,12.31569 22.999996,12.628149 23,13 C 22.999996,13.570692 22.793824,14.218852 22.381486,14.531311 C 21.969139,14.84377 21.383178,15 20.623602,15 C 20.368598,15 20.105458,14.975468 19.834182,14.926404 C 19.565615,14.879923 19.287555,14.808909 19.000001,14.713364 L 19.000001,13.958038 C 19.227873,14.084572 19.477449,14.180117 19.748729,14.244675 C 20.020006,14.309233 20.303491,14.341511 20.599186,14.341511 C 21.114613,14.341511 21.50661,14.244676 21.775179,14.051001 C 22.046453,13.857329 22.182092,13.369272 22.182096,13 C 22.182092,12.659137 22.055948,12.39316 21.803662,12.202066 C 21.554084,12.008395 21.205491,11.911558 20.757885,11.911556 L 20.049848,11.911556 L 20.049848,11.26856 L 20.790438,11.26856 C 21.19464,11.268564 21.503897,11.192386 21.71821,11.040026 C 21.932516,10.885091 22.039671,10.869598 22.039675,10.580376 C 22.039671,10.283414 21.928447,10.056171 21.706003,9.8986447 C 21.486264,9.7385469 21.170225,9.6584953 20.757885,9.6584902 C 20.532721,9.6584953 20.291284,9.6817361 20.033571,9.7282125 C 19.775855,9.7746994 19.49237,9.8470043 19.183113,9.9451269 L 19.183113,9.2479027 C 19.495082,9.1652744 19.786706,9.103299 20.057986,9.0619763 C 20.331975,9.0206652 20.589689,9.0000067 20.83113,9.0000008 C 21.455067,9.0000067 21.948793,9.1355779 22.31231,9.4067148 C 22.675818,9.6752803 22.857575,10.039386 22.857579,10.499032 C 22.857575,10.819243 22.761271,10.8838 22.568668,11.105875 C 22.376056,11.325375 22.102065,11.477731 21.746694,11.562944" font-family="Bitstream Vera Sans" font-size="8.131" font-style="normal" font-weight="normal"/><path id="path7512" fill="none" fill-opacity="1" fill-rule="evenodd" stroke="#fff" stroke-dasharray="none" stroke-linecap="round" stroke-linejoin="round" stroke-miterlimit="4" stroke-opacity=".992" stroke-width="1.155" d="M 10.5 7 A 2 1.5 0 1 1 6.5,7 A 2 1.5 0 1 1 10.5 7 z" display="inline" transform="matrix(0.75,0,0,1,18.125,0)"/><rect id="rect7506" width="2" height="7" x="23.5" y=".5" fill="url(#radialGradient6672)" fill-opacity="1" fill-rule="evenodd" stroke="#888a85" stroke-dasharray="none" stroke-linecap="round" stroke-linejoin="round" stroke-miterlimit="4" stroke-opacity=".992" stroke-width="1" display="inline" rx=".829" ry=".829"/><path id="path7514" fill="#fff" fill-opacity="1" fill-rule="evenodd" stroke="none" stroke-dasharray="none" stroke-linecap="round" stroke-linejoin="round" stroke-miterlimit="4" stroke-opacity=".992" stroke-width="1" d="M 13.5 2.5 A 0.5 0.5 0 1 1 12.5,2.5 A 0.5 0.5 0 1 1 13.5 2.5 z" transform="translate(11,0)"/><path id="path7516" fill="#fff" fill-opacity="1" fill-rule="evenodd" stroke="none" stroke-dasharray="none" stroke-linecap="round" stroke-linejoin="round" stroke-miterlimit="4" stroke-opacity=".992" stroke-width="1" d="M 13.5 2.5 A 0.5 0.5 0 1 1 12.5,2.5 A 0.5 0.5 0 1 1 13.5 2.5 z" display="inline" transform="translate(4,0)"/><path id="path7518" fill="url(#radialGradient6674)" fill-opacity="1" fill-rule="evenodd" stroke="none" stroke-dasharray="none" stroke-linecap="round" stroke-linejoin="round" stroke-miterlimit="4" stroke-opacity=".992" stroke-width="1" d="M 13.5 2.5 A 0.5 0.5 0 1 1 12.5,2.5 A 0.5 0.5 0 1 1 13.5 2.5 z" display="inline" opacity=".601" transform="matrix(3,0,0,4,-14.5,-7)"/><path id="path7528" fill="url(#radialGradient6676)" fill-opacity="1" fill-rule="evenodd" stroke="none" stroke-dasharray="none" stroke-linecap="round" stroke-linejoin="round" stroke-miterlimit="4" stroke-opacity=".992" stroke-width="1" d="M 13.5 2.5 A 0.5 0.5 0 1 1 12.5,2.5 A 0.5 0.5 0 1 1 13.5 2.5 z" display="inline" opacity=".601" transform="matrix(3,0,0,4,-21.5,-7)"/><path id="path6623" fill="#000" fill-opacity="1" fill-rule="evenodd" stroke="#000" stroke-linecap="round" stroke-linejoin="round" stroke-miterlimit="4" stroke-opacity=".992" stroke-width="1" d="M 12.5,9.34375 C 12.160398,9.34375 11.831069,9.3736153 11.5,9.40625 L 11.5,19.65625 C 11.5,20.115253 11.884747,20.5 12.34375,20.5 L 22.59375,20.5 C 22.626385,20.168931 22.65625,19.839602 22.65625,19.5 C 22.65625,13.8972 18.1028,9.3437496 12.5,9.34375 z" display="inline" opacity=".1"/></g><path id="path7188" fill="#fcaf3e" fill-opacity="1" fill-rule="evenodd" stroke="#ce5c00" stroke-dasharray="none" stroke-dashoffset=".7" stroke-linecap="round" stroke-linejoin="miter" stroke-miterlimit="10" stroke-opacity="1" stroke-width=".69" d="M 20.5 10.5 A 10 10 0 1 1 0.5,10.5 A 10 10 0 1 1 20.5 10.5 z" transform="matrix(1.015,0,0,1.015,0.8425002,8.8425)"/><path id="path7192" fill="url(#radialGradient5595)" fill-opacity="1" stroke="url(#linearGradient5597)" stroke-dasharray="none" stroke-linecap="round" stroke-linejoin="round" stroke-miterlimit="4" stroke-opacity="1" stroke-width=".845" d="M 15.092248 10.078017 A 6.4298334 7.0996075 0 1 1 2.2325811,10.078017 A 6.4298334 7.0996075 0 1 1 15.092248 10.078017 z" transform="matrix(1.2442001,0,0,1.1268228,0.7222232,8.14386)"/><g id="g5586" transform="matrix(0.5388228,0.8424191,-0.8424191,0.5388228,23.130016,-0.299263)"><path id="path7212" fill="#888a85" fill-rule="evenodd" stroke="#2e3436" stroke-dasharray="none" stroke-linecap="round" stroke-linejoin="round" stroke-miterlimit="4" stroke-opacity="1" stroke-width=".7" d="M 10.5,19.35 L 15,21.5 L 10.5,21.65 L 10.5,19.35 z"/><path id="path7214" fill="#888a85" fill-rule="evenodd" stroke="#2e3436" stroke-dasharray="none" stroke-linecap="round" stroke-linejoin="round" stroke-miterlimit="4" stroke-opacity="1" stroke-width=".7" d="M 9.6206512,20.5 L 10.5,14.35 L 11.379349,20.5 L 9.6206512,20.5 z"/><path id="path7210" fill="#888a85" fill-opacity="1" fill-rule="evenodd" stroke="#2e3436" stroke-dasharray="none" stroke-dashoffset=".7" stroke-linecap="round" stroke-linejoin="miter" stroke-miterlimit="10" stroke-opacity="1" stroke-width=".609" d="M 11.5 10.5 A 1 1 0 1 1 9.5,10.5 A 1 1 0 1 1 11.5 10.5 z" transform="matrix(1.15,0,0,1.15,-1.5749999,8.425)"/></g><path id="path7227" fill="none" fill-opacity="1" stroke="url(#linearGradient5593)" stroke-dasharray="none" stroke-linecap="round" stroke-linejoin="round" stroke-miterlimit="4" stroke-opacity="1" stroke-width=".965" d="M 15.092248 10.078017 A 6.4298334 7.0996075 0 1 1 2.2325811,10.078017 A 6.4298334 7.0996075 0 1 1 15.092248 10.078017 z" opacity=".1" transform="matrix(1.0886751,0,0,0.98597,2.069445,9.563377)"/></g></svg>