<svg xmlns="http://www.w3.org/2000/svg" xmlns:svg="http://www.w3.org/2000/svg" xmlns:xlink="http://www.w3.org/1999/xlink" id="svg249" width="16" height="16" version="1.0"><defs id="defs3"><linearGradient id="linearGradient7520"><stop id="stop7522" offset="0" stop-color="#fff" stop-opacity="1"/><stop id="stop7524" offset="1" stop-color="#fff" stop-opacity="0"/></linearGradient><linearGradient id="linearGradient7498"><stop id="stop7500" offset="0" stop-color="#fff" stop-opacity="1"/><stop id="stop7502" offset="1" stop-color="#babdb6" stop-opacity="1"/></linearGradient><linearGradient id="linearGradient7419"><stop id="stop7421" offset="0" stop-color="#fff" stop-opacity="1"/><stop id="stop7423" offset="1" stop-color="#fff" stop-opacity="0"/></linearGradient><linearGradient id="linearGradient7403"><stop id="stop7405" offset="0" stop-color="#e9b96e" stop-opacity="1"/><stop id="stop7407" offset="1" stop-color="#c17d11" stop-opacity="1"/></linearGradient><linearGradient id="linearGradient4537"><stop id="stop6075" offset="0" stop-color="#fff" stop-opacity="1"/><stop id="stop6073" offset="1" stop-color="#e6e6e6" stop-opacity="1"/></linearGradient><linearGradient id="linearGradient2322"><stop id="stop2324" offset="0" stop-color="#fff" stop-opacity="1"/><stop id="stop2326" offset="1" stop-color="#c1c7bc" stop-opacity="1"/></linearGradient><linearGradient id="linearGradient7196"><stop id="stop7198" offset="0" stop-color="#ce5c00" stop-opacity="1"/><stop id="stop7200" offset="1" stop-color="#f57900" stop-opacity="1"/></linearGradient><radialGradient id="radialGradient5515" cx="8.5" cy="3.507" r="1.5" fx="8.5" fy="3.507" gradientTransform="matrix(2.5003472,0,0,0.9791667,-9.752951,-2.0102077)" gradientUnits="userSpaceOnUse" xlink:href="#linearGradient7498"/><radialGradient id="radialGradient5522" cx="8.5" cy="3.507" r="1.5" fx="8.5" fy="3.507" gradientTransform="matrix(2.5003472,0,0,0.9791667,-13.752951,-2.0102077)" gradientUnits="userSpaceOnUse" xlink:href="#linearGradient7498"/><linearGradient id="linearGradient5526" x1="3.125" x2="14.313" y1="2.313" y2="31.188" gradientTransform="matrix(0.5882353,0,0,0.5,3.029412,0.7499999)" gradientUnits="userSpaceOnUse" xlink:href="#linearGradient7419"/><linearGradient id="linearGradient5531" x1="37.271" x2="31.705" y1="27.273" y2="18.099" gradientTransform="matrix(0.2452612,0,0,0.360917,3.4911197,-2.7760696)" gradientUnits="userSpaceOnUse" xlink:href="#linearGradient4537"/><linearGradient id="linearGradient5534" x1="18.385" x2="-7.204" y1="24.652" y2="-13.267" gradientTransform="matrix(0.6315789,0,0,0.5555555,2.5526317,0.1111112)" gradientUnits="userSpaceOnUse" xlink:href="#linearGradient7403"/><radialGradient id="radialGradient5536" cx="13" cy="2.5" r=".5" fx="13" fy="2.5" gradientUnits="userSpaceOnUse" xlink:href="#linearGradient7520"/><radialGradient id="radialGradient5538" cx="13" cy="2.5" r=".5" fx="13" fy="2.5" gradientUnits="userSpaceOnUse" xlink:href="#linearGradient7520"/><radialGradient id="radialGradient6678" cx="9.449" cy="16.664" r="17.709" fx="9.449" fy="16.664" gradientTransform="matrix(0.5650555,0,0,0.5973401,2.5696638,-0.541451)" gradientUnits="userSpaceOnUse" xlink:href="#linearGradient2322"/><linearGradient id="linearGradient6680" x1="6.854" x2="8.361" y1="3.533" y2="12.75" gradientUnits="userSpaceOnUse" xlink:href="#linearGradient7196"/></defs><metadata id="metadata4"/><g id="layer5" display="inline"><path id="rect7401" fill="url(#linearGradient5534)" fill-opacity="1" fill-rule="evenodd" stroke="#8f5902" stroke-linecap="round" stroke-linejoin="round" stroke-miterlimit="4" stroke-opacity=".992" stroke-width="1" d="M 4.0232789,1.5000001 L 14.97672,1.5000001 C 15.266616,1.5000001 15.499999,1.7052902 15.499999,1.9602916 L 15.499999,11.039709 C 15.499999,11.29471 15.266616,11.5 14.97672,11.5 L 4.0232789,11.5 C 3.7333824,11.5 3.5000001,11.29471 3.5000001,11.039709 L 3.5000001,1.9602916 C 3.5000001,1.7052902 3.7333824,1.5000001 4.0232789,1.5000001 z"/><path id="path3660" fill="url(#linearGradient5531)" fill-opacity="1" fill-rule="evenodd" stroke="#555753" stroke-dasharray="none" stroke-dashoffset="0" stroke-linecap="butt" stroke-linejoin="miter" stroke-miterlimit="4" stroke-opacity="1" stroke-width="1" marker-end="none" marker-mid="none" marker-start="none" d="M 5.5000001,1.5 L 13.499999,1.5 L 13.499999,9.5000001 L 5.5000001,9.5000001 L 5.5000001,1.5 z" color="#000" display="block" overflow="visible" visibility="visible" style="marker:none"/><path id="path4545" fill="none" fill-opacity="1" fill-rule="evenodd" stroke="#fff" stroke-dasharray="none" stroke-dashoffset="0" stroke-linecap="butt" stroke-linejoin="miter" stroke-miterlimit="4" stroke-opacity="1" stroke-width="1" marker-end="none" marker-mid="none" marker-start="none" d="M 6.4999995,2.5 L 12.499999,2.5 L 12.499999,8.5000006 L 6.4999995,8.5000006 L 6.4999995,2.5 z" color="#000" display="block" overflow="visible" visibility="visible" style="marker:none"/><path id="path7415" fill="none" fill-opacity="1" fill-rule="evenodd" stroke="url(#linearGradient5526)" stroke-linecap="round" stroke-linejoin="round" stroke-miterlimit="4" stroke-opacity=".992" stroke-width="1" d="M 4.5000001,2.5 L 4.5000001,10.5 L 14.499998,10.5 L 14.499998,2.5 L 4.5000001,2.5 z" display="inline" opacity=".287"/><path id="path7034" fill="#fff" fill-opacity="1" fill-rule="evenodd" stroke="none" stroke-dasharray="none" stroke-linecap="round" stroke-linejoin="round" stroke-miterlimit="4" stroke-opacity=".992" stroke-width="1" d="M 7.078125 5.09375 A 1.4921875 1.046875 0 1 1 4.09375,5.09375 A 1.4921875 1.046875 0 1 1 7.078125 5.09375 z" transform="matrix(1.0104712,0,0,0.9552239,1.8633835,-0.8656717)"/><rect id="rect7427" width="2" height="2.938" x="6.5" y=".5" fill="url(#radialGradient5522)" fill-opacity="1" fill-rule="evenodd" stroke="#888a85" stroke-dasharray="none" stroke-linecap="round" stroke-linejoin="round" stroke-miterlimit="4" stroke-opacity=".992" stroke-width="1" rx=".829" ry=".348"/><path id="path7516" fill="#fff" fill-opacity="1" fill-rule="evenodd" stroke="none" stroke-dasharray="none" stroke-linecap="round" stroke-linejoin="round" stroke-miterlimit="4" stroke-opacity=".992" stroke-width="1" d="M 13.5 2.5 A 0.5 0.5 0 1 1 12.5,2.5 A 0.5 0.5 0 1 1 13.5 2.5 z" display="inline" transform="translate(-6,-1)"/><path id="path7528" fill="url(#radialGradient5536)" fill-opacity="1" fill-rule="evenodd" stroke="none" stroke-dasharray="none" stroke-linecap="round" stroke-linejoin="round" stroke-miterlimit="4" stroke-opacity=".992" stroke-width="1" d="M 13.5 2.5 A 0.5 0.5 0 1 1 12.5,2.5 A 0.5 0.5 0 1 1 13.5 2.5 z" display="inline" opacity=".601" transform="matrix(3,0,0,3,-31.5,-6)"/><path id="path7036" fill="#fff" fill-opacity="1" fill-rule="evenodd" stroke="none" stroke-dasharray="none" stroke-linecap="round" stroke-linejoin="round" stroke-miterlimit="4" stroke-opacity=".992" stroke-width="1" d="M 7.078125 5.09375 A 1.4921875 1.046875 0 1 1 4.09375,5.09375 A 1.4921875 1.046875 0 1 1 7.078125 5.09375 z" display="inline" transform="matrix(1.0104712,0,0,0.9552239,5.863383,-0.8656717)"/><rect id="rect6044" width="2" height="2.938" x="10.5" y=".5" fill="url(#radialGradient5515)" fill-opacity="1" fill-rule="evenodd" stroke="#888a85" stroke-dasharray="none" stroke-linecap="round" stroke-linejoin="round" stroke-miterlimit="4" stroke-opacity=".992" stroke-width="1" display="inline" rx=".829" ry=".348"/><path id="path6046" fill="#fff" fill-opacity="1" fill-rule="evenodd" stroke="none" stroke-dasharray="none" stroke-linecap="round" stroke-linejoin="round" stroke-miterlimit="4" stroke-opacity=".992" stroke-width="1" d="M 13.5 2.5 A 0.5 0.5 0 1 1 12.5,2.5 A 0.5 0.5 0 1 1 13.5 2.5 z" display="inline" transform="translate(-2,-1)"/><path id="path6048" fill="url(#radialGradient5538)" fill-opacity="1" fill-rule="evenodd" stroke="none" stroke-dasharray="none" stroke-linecap="round" stroke-linejoin="round" stroke-miterlimit="4" stroke-opacity=".992" stroke-width="1" d="M 13.5 2.5 A 0.5 0.5 0 1 1 12.5,2.5 A 0.5 0.5 0 1 1 13.5 2.5 z" display="inline" opacity=".601" transform="matrix(3,0,0,3,-27.5,-6)"/><path id="rect6062" fill="#eeeeec" fill-opacity="1" fill-rule="evenodd" stroke="#888a85" stroke-linecap="round" stroke-linejoin="round" stroke-miterlimit="4" stroke-opacity=".992" stroke-width="1" d="M 12.964957,8.500001 L 11.512942,8.500001 L 11.512942,6.503792 L 12.964957,6.503792"/><g id="g6670"><g id="g6661" transform="translate(20,0)"><path id="path5540" fill="#fcaf3e" fill-opacity="1" fill-rule="evenodd" stroke="#ce5c00" stroke-dasharray="none" stroke-dashoffset=".7" stroke-linecap="round" stroke-linejoin="miter" stroke-miterlimit="10" stroke-opacity="1" stroke-width="1.347" d="M 20.5 10.5 A 10 10 0 1 1 0.5,10.5 A 10 10 0 1 1 20.5 10.5 z" display="inline" transform="matrix(0.5197334,0,0,0.5197504,-19.942685,5.0564854)"/><path id="path7845" fill="#fcaf3e" fill-opacity="1" fill-rule="evenodd" stroke="#ce5c00" stroke-dasharray="none" stroke-dashoffset=".7" stroke-linecap="round" stroke-linejoin="miter" stroke-miterlimit="10" stroke-opacity="1" stroke-width="1.347" d="M 20.5 10.5 A 10 10 0 1 1 0.5,10.5 A 10 10 0 1 1 20.5 10.5 z" transform="matrix(0.5197335,0,0,0.5197504,-19.942686,5.0564855)"/><path id="path7847" fill="url(#radialGradient6678)" fill-opacity="1" stroke="url(#linearGradient6680)" stroke-dasharray="none" stroke-linecap="round" stroke-linejoin="round" stroke-miterlimit="4" stroke-opacity="1" stroke-width="1.938" d="M 15.092248 10.078017 A 6.4298334 7.0996075 0 1 1 2.2325811,10.078017 A 6.4298334 7.0996075 0 1 1 15.092248 10.078017 z" transform="matrix(0.5421637,0,0,0.4910322,-19.181931,5.5652321)"/></g><rect id="rect5553" width="1" height="1.016" x="6" y="10.984" fill="#2e3436" fill-opacity="1" stroke="none" stroke-dasharray="none" stroke-dashoffset=".7" stroke-linecap="round" stroke-linejoin="miter" stroke-miterlimit="4" stroke-opacity="0" stroke-width="3.5"/><rect id="rect5563" width="3" height="1.016" x="5" y="9.984" fill="#2e3436" fill-opacity="1" stroke="none" stroke-dasharray="none" stroke-dashoffset=".7" stroke-linecap="round" stroke-linejoin="miter" stroke-miterlimit="4" stroke-opacity="0" stroke-width="3.5" display="inline"/></g></g></svg>