<svg xmlns="http://www.w3.org/2000/svg" xmlns:svg="http://www.w3.org/2000/svg" xmlns:xlink="http://www.w3.org/1999/xlink" id="svg249" width="48" height="48" version="1.0"><defs id="defs3"><linearGradient id="linearGradient7022"><stop id="stop7024" offset="0" stop-color="#fff" stop-opacity="1"/><stop id="stop7026" offset="1" stop-color="#fff" stop-opacity="0"/></linearGradient><linearGradient id="linearGradient8241"><stop id="stop8243" offset="0" stop-color="#eeeeec" stop-opacity="1"/><stop id="stop8245" offset="1" stop-color="#eeeeec" stop-opacity="0"/></linearGradient><linearGradient id="linearGradient7807"><stop id="stop7809" offset="0" stop-color="#fff" stop-opacity="1"/><stop id="stop7811" offset="1" stop-color="#fff" stop-opacity="0"/></linearGradient><linearGradient id="linearGradient7497"><stop id="stop7499" offset="0" stop-color="#c17d11" stop-opacity="1"/><stop id="stop7501" offset="1" stop-color="#e9b96e" stop-opacity="1"/></linearGradient><linearGradient id="linearGradient3428"><stop id="stop3430" offset="0" stop-color="#000" stop-opacity="0"/><stop id="stop3436" offset=".5" stop-color="#000" stop-opacity="1"/><stop id="stop3432" offset="1" stop-color="#000" stop-opacity="0"/></linearGradient><linearGradient id="linearGradient3414"><stop id="stop3416" offset="0" stop-color="#000" stop-opacity="1"/><stop id="stop3418" offset="1" stop-color="#000" stop-opacity="0"/></linearGradient><linearGradient id="linearGradient7218"><stop id="stop7220" offset="0" stop-color="#eeeeec" stop-opacity="1"/><stop id="stop7222" offset="1" stop-color="#fff" stop-opacity="1"/></linearGradient><linearGradient id="linearGradient7192"><stop id="stop7194" offset="0" stop-color="#d3d7cf" stop-opacity="1"/><stop id="stop7196" offset="1" stop-color="#d3d7cf" stop-opacity="0"/></linearGradient><linearGradient id="linearGradient7179"><stop id="stop7181" offset="0" stop-color="#babdb6" stop-opacity="1"/><stop id="stop7183" offset="1" stop-color="#fff" stop-opacity="1"/></linearGradient><linearGradient id="linearGradient7006"><stop id="stop7008" offset="0" stop-color="#babdb6" stop-opacity="1"/><stop id="stop7010" offset="1" stop-color="#eeeeec" stop-opacity="1"/></linearGradient><linearGradient id="linearGradient7128" x1="35.997" x2="33.665" y1="40.458" y2="37.771" gradientTransform="matrix(0.4371203,0,0,0.503966,8.419125,-0.619538)" gradientUnits="userSpaceOnUse" xlink:href="#linearGradient7179"/><linearGradient id="linearGradient7131" x1="37.076" x2="40.313" y1="33.31" y2="36.461" gradientTransform="matrix(0.5777358,0,0,0.5969934,2.7100257,0.4709245)" gradientUnits="userSpaceOnUse" xlink:href="#linearGradient7192"/><linearGradient id="linearGradient7138" x1="6.531" x2="41.406" y1="27.031" y2="27.031" gradientTransform="matrix(0.6211562,0,0,0.638404,1.0908325,-0.7568579)" gradientUnits="userSpaceOnUse" xlink:href="#linearGradient7006"/><linearGradient id="linearGradient7147" x1="42.75" x2="80" y1="13.875" y2="72" gradientTransform="matrix(0.6587907,0,0,0.5806453,-19.574698,4.4032246)" gradientUnits="userSpaceOnUse" xlink:href="#linearGradient7497"/><linearGradient id="linearGradient7155" x1="13.155" x2="25.545" y1="19.608" y2="32.263" gradientUnits="userSpaceOnUse" xlink:href="#linearGradient7218"/><linearGradient id="linearGradient7201" x1="18.534" x2="20.167" y1="6.104" y2="6.347" gradientTransform="scale(0.6666667,0.6666667)" gradientUnits="userSpaceOnUse" xlink:href="#linearGradient8241"/><radialGradient id="radialGradient7203" cx="-42.471" cy="6.601" r="1.436" fx="-42.471" fy="6.601" gradientTransform="matrix(1,0,0,0.9923077,0,5.0777806e-2)" gradientUnits="userSpaceOnUse" xlink:href="#linearGradient7807"/><radialGradient id="radialGradient7211" cx="3" cy="43" r="2" fx="3" fy="43" gradientTransform="matrix(2,0,0,2,-13,-129)" gradientUnits="userSpaceOnUse" xlink:href="#linearGradient3414"/><radialGradient id="radialGradient7213" cx="3" cy="43" r="2" fx="3" fy="43" gradientTransform="matrix(2,0,0,2,35,-43)" gradientUnits="userSpaceOnUse" xlink:href="#linearGradient3414"/><linearGradient id="linearGradient7215" x1="11.508" x2="11.508" y1="39" y2="47.016" gradientUnits="userSpaceOnUse" xlink:href="#linearGradient3428"/><radialGradient id="radialGradient7217" cx="3" cy="43" r="2" fx="3" fy="43" gradientTransform="matrix(2,0,0,2,-13,-129)" gradientUnits="userSpaceOnUse" xlink:href="#linearGradient3414"/><radialGradient id="radialGradient7219" cx="3" cy="43" r="2" fx="3" fy="43" gradientTransform="matrix(2,0,0,2,35,-43)" gradientUnits="userSpaceOnUse" xlink:href="#linearGradient3414"/><linearGradient id="linearGradient7221" x1="11.508" x2="11.508" y1="39" y2="47.016" gradientUnits="userSpaceOnUse" xlink:href="#linearGradient3428"/><linearGradient id="linearGradient7028" x1="4.71" x2="3.151" y1="28.763" y2="-9.013" gradientTransform="matrix(0.6415113,0,0,0.5517243,0.6037292,4.0517228)" gradientUnits="userSpaceOnUse" xlink:href="#linearGradient7022"/><linearGradient id="linearGradient6025" x1="18.534" x2="22.318" y1="6.104" y2="7.43" gradientTransform="scale(0.6666667,0.6666667)" gradientUnits="userSpaceOnUse" xlink:href="#linearGradient8241"/><radialGradient id="radialGradient6027" cx="-42.471" cy="6.601" r="1.436" fx="-42.471" fy="6.601" gradientTransform="matrix(1,0,0,0.9923077,0,5.0777806e-2)" gradientUnits="userSpaceOnUse" xlink:href="#linearGradient7807"/><linearGradient id="linearGradient2276"><stop id="stop2278" offset="0" stop-color="#f57900" stop-opacity="1"/><stop id="stop2280" offset="1" stop-color="#fcaf3e" stop-opacity="1"/></linearGradient><linearGradient id="linearGradient2322"><stop id="stop2324" offset="0" stop-color="#fff" stop-opacity="1"/><stop id="stop2326" offset="1" stop-color="#c1c7bc" stop-opacity="1"/></linearGradient><linearGradient id="linearGradient2789"><stop id="stop2791" offset="0" stop-color="#fff" stop-opacity="1"/><stop id="stop2793" offset="1" stop-color="#fff" stop-opacity="0"/></linearGradient><linearGradient id="linearGradient6917"><stop id="stop6919" offset="0" stop-color="#000" stop-opacity="1"/><stop id="stop6921" offset="1" stop-color="#000" stop-opacity="0"/></linearGradient><linearGradient id="linearGradient8028"><stop id="stop8030" offset="0" stop-color="#fff" stop-opacity="1"/><stop id="stop8032" offset="1" stop-color="#fff" stop-opacity="0"/></linearGradient><radialGradient id="radialGradient5620" cx="10.783" cy="15.491" r="17.709" fx="10.783" fy="15.491" gradientTransform="matrix(0.4044676,0,0,0.427577,4.3012139,2.476585)" gradientUnits="userSpaceOnUse" xlink:href="#linearGradient2322"/><linearGradient id="linearGradient5624" x1="25.594" x2="26.14" y1="20.927" y2="51.027" gradientUnits="userSpaceOnUse" xlink:href="#linearGradient2789"/><linearGradient id="linearGradient5626" x1="25.866" x2="23.732" y1="-40.465" y2="-49.625" gradientUnits="userSpaceOnUse" xlink:href="#linearGradient8028"/><radialGradient id="radialGradient5635" cx="10.5" cy="10.499" r="10.496" fx="10.5" fy="10.499" gradientTransform="matrix(1.4860503,3.2470839e-7,-3.2477719e-7,1.4860413,0.8964758,13.263566)" gradientUnits="userSpaceOnUse" xlink:href="#linearGradient2276"/><radialGradient id="radialGradient5666" cx="16" cy="27.875" r="12.125" fx="16" fy="27.875" gradientTransform="matrix(1,0,0,0.2886598,0,19.828608)" gradientUnits="userSpaceOnUse" xlink:href="#linearGradient6917"/></defs><metadata id="metadata4"/><g id="layer5" display="inline"><g id="g5405" transform="translate(16,0)"><g id="g7610" display="inline" opacity=".4" transform="matrix(0.7142858,0,0,0.5833334,-1.142861,3.2499974)"><rect id="rect7612" width="4" height="8" x="-7" y="-47" fill="url(#radialGradient7211)" fill-opacity="1" fill-rule="nonzero" stroke="none" stroke-dasharray="none" stroke-dashoffset="1.4" stroke-linecap="square" stroke-linejoin="round" stroke-miterlimit="6" stroke-opacity="1" stroke-width="1" marker-end="none" marker-mid="none" marker-start="none" color="#000" display="inline" opacity="1" overflow="visible" transform="scale(-1,-1)" visibility="visible" style="marker:none"/><rect id="rect7614" width="4" height="8" x="41" y="39" fill="url(#radialGradient7213)" fill-opacity="1" fill-rule="nonzero" stroke="none" stroke-dasharray="none" stroke-dashoffset="1.4" stroke-linecap="square" stroke-linejoin="round" stroke-miterlimit="6" stroke-opacity="1" stroke-width="1" marker-end="none" marker-mid="none" marker-start="none" color="#000" display="inline" opacity="1" overflow="visible" visibility="visible" style="marker:none"/><rect id="rect7616" width="34" height="8" x="7" y="39" fill="url(#linearGradient7215)" fill-opacity="1" fill-rule="nonzero" stroke="none" stroke-dasharray="none" stroke-dashoffset="1.4" stroke-linecap="square" stroke-linejoin="round" stroke-miterlimit="6" stroke-opacity="1" stroke-width="1" marker-end="none" marker-mid="none" marker-start="none" color="#000" display="inline" opacity="1" overflow="visible" visibility="visible" style="marker:none"/></g><rect id="rect6008" width="3" height="5.397" x="11" y="6.594" fill="#888a85" fill-opacity="1" fill-rule="evenodd" stroke="none" stroke-dasharray="none" stroke-linecap="round" stroke-linejoin="round" stroke-miterlimit="4" stroke-opacity=".992" stroke-width="1"/><rect id="rect6010" width="3" height="5.544" x="19" y="6.448" fill="#888a85" fill-opacity="1" fill-rule="evenodd" stroke="none" stroke-dasharray="none" stroke-linecap="round" stroke-linejoin="round" stroke-miterlimit="4" stroke-opacity=".992" stroke-width="1" display="inline"/><path id="path7618" fill="url(#linearGradient7147)" fill-opacity="1" fill-rule="evenodd" stroke="#8f5902" stroke-linecap="round" stroke-linejoin="miter" stroke-miterlimit="4" stroke-opacity="1" stroke-width="1" d="M 6.0445643,10.5 C 5.2380866,10.5 4.5127989,11.011494 4.3975876,11.641071 L 1.5153782,27.35893 C 1.4001669,27.988508 1.9441331,28.500001 2.7506108,28.500001 L 29.24939,28.500001 C 30.055867,28.500001 30.599834,27.988508 30.484622,27.35893 L 27.602413,11.641071 C 27.487203,11.011494 26.761914,10.5 25.955436,10.5 L 6.0445643,10.5 z" display="inline"/><path id="path7622" fill="none" fill-opacity="1" fill-rule="evenodd" stroke="url(#linearGradient7028)" stroke-linecap="round" stroke-linejoin="miter" stroke-miterlimit="4" stroke-opacity="1" stroke-width="1" d="M 6.2794562,11.5 C 5.8031289,11.5 5.370718,11.835261 5.3171892,12.12069 L 2.5105773,27.051728 C 2.4841213,27.192797 2.5060125,27.285064 2.5907662,27.362072 C 2.6755198,27.43908 2.8337358,27.500004 3.0718997,27.500004 L 28.928101,27.500004 C 29.166265,27.500004 29.324481,27.43908 29.409235,27.362072 C 29.493989,27.285064 29.515879,27.192796 29.489424,27.051728 L 26.682812,12.12069 C 26.629283,11.835262 26.196872,11.5 25.720545,11.5 L 6.2794562,11.5 z" display="inline" opacity=".3"/><g id="g7624" display="inline" opacity=".4" transform="matrix(0.6031746,0,0,0.3203125,1.5238094,11.945313)"><rect id="rect7626" width="4" height="8" x="-7" y="-47" fill="url(#radialGradient7217)" fill-opacity="1" fill-rule="nonzero" stroke="none" stroke-dasharray="none" stroke-dashoffset="1.4" stroke-linecap="square" stroke-linejoin="round" stroke-miterlimit="6" stroke-opacity="1" stroke-width="1" marker-end="none" marker-mid="none" marker-start="none" color="#000" display="inline" opacity="1" overflow="visible" transform="scale(-1,-1)" visibility="visible" style="marker:none"/><rect id="rect7628" width="4" height="8" x="41" y="39" fill="url(#radialGradient7219)" fill-opacity="1" fill-rule="nonzero" stroke="none" stroke-dasharray="none" stroke-dashoffset="1.4" stroke-linecap="square" stroke-linejoin="round" stroke-miterlimit="6" stroke-opacity="1" stroke-width="1" marker-end="none" marker-mid="none" marker-start="none" color="#000" display="inline" opacity="1" overflow="visible" visibility="visible" style="marker:none"/><rect id="rect7630" width="34" height="8" x="7" y="39" fill="url(#linearGradient7221)" fill-opacity="1" fill-rule="nonzero" stroke="none" stroke-dasharray="none" stroke-dashoffset="1.4" stroke-linecap="square" stroke-linejoin="round" stroke-miterlimit="6" stroke-opacity="1" stroke-width="1" marker-end="none" marker-mid="none" marker-start="none" color="#000" display="inline" opacity="1" overflow="visible" visibility="visible" style="marker:none"/></g><path id="path7632" fill="url(#linearGradient7138)" fill-opacity="1" fill-rule="evenodd" stroke="#555753" stroke-linecap="round" stroke-linejoin="miter" stroke-miterlimit="4" stroke-opacity="1" stroke-width="1" d="M 6.632383,8.4999996 L 4.4583365,22.584787 L 4.4583365,25.499999 L 27.500001,25.499999 L 27.500001,22.584787 L 25.364777,8.4999996 L 6.632383,8.4999996 z" display="inline"/><path id="path7634" fill="url(#linearGradient7155)" fill-opacity="1" fill-rule="evenodd" stroke="none" stroke-linecap="round" stroke-linejoin="miter" stroke-miterlimit="4" stroke-opacity="1" stroke-width="1" d="M 10.96875,15 L 7.625,36.0625 L 40.3125,36.0625 L 37.03125,15 L 10.96875,15 z" display="inline" transform="matrix(0.6743147,0,0,0.6172107,-0.1833129,-0.2581592)"/><path id="path7636" fill="none" fill-opacity="1" fill-rule="evenodd" stroke="#fff" stroke-linecap="round" stroke-linejoin="miter" stroke-miterlimit="4" stroke-opacity="1" stroke-width="1" d="M 7.4705678,9.457606 L 5.4583371,22.361427 L 5.4583371,24.5 L 26.500002,24.5 L 26.500002,22.361427 L 24.525034,9.457606 L 7.4705678,9.457606 z" display="inline" opacity=".295"/><path id="path7650" fill="url(#linearGradient7131)" fill-opacity="1" fill-rule="evenodd" stroke="none" stroke-linecap="round" stroke-linejoin="miter" stroke-miterlimit="4" stroke-opacity="1" stroke-width="1" d="M 20.315593,22 L 26,22 L 25.125607,16.120751 L 20.315593,22 z" display="inline"/><path id="path7652" fill="url(#linearGradient7128)" fill-opacity="1" fill-rule="evenodd" stroke="#babdb6" stroke-dasharray="none" stroke-dashoffset="0" stroke-linecap="butt" stroke-linejoin="miter" stroke-miterlimit="4" stroke-opacity="1" stroke-width="1" marker-end="none" marker-mid="none" marker-start="none" d="M 21.37447,21.496914 C 22.761678,21.602224 25.954578,18.995218 25.445564,16.348065 C 24.762225,17.569217 23.718135,17.507108 21.864695,17.473115 C 21.864695,17.473115 21.966319,21.123045 21.37447,21.496914 z" color="#000" display="inline" overflow="visible" visibility="visible" style="marker:none"/><path id="text7654" fill="#2e3436" fill-opacity="1" stroke="none" stroke-linecap="butt" stroke-linejoin="miter" stroke-opacity="1" stroke-width="1" d="M 17.144581,17.212854 C 17.624774,17.2792 18.529327,17.444706 18.79758,17.654435 C 19.069134,17.864167 19.293302,18.205529 19.293308,18.513702 C 19.293302,18.986666 19.041613,19.352624 18.53824,19.611576 C 18.034856,19.870529 17.054364,20.000006 16.127091,20.000006 C 15.815788,20.000006 14.72852,19.952205 14.397352,19.911543 C 14.069492,19.873021 13.730043,19.814168 13.379004,19.734984 L 13.379004,19.109003 C 13.657185,19.213869 13.961862,19.293053 14.293034,19.346555 C 14.624202,19.400059 15.736307,19.454279 16.097285,19.454279 C 16.726506,19.454279 17.470211,19.374025 17.798074,19.213517 C 18.12924,19.053009 18.294825,18.819738 18.29483,18.513702 C 18.294825,18.231209 18.052442,17.92837 17.744458,17.77 C 17.439777,17.609494 16.749058,17.501771 16.202631,17.501769 L 15.338277,17.501769 L 15.338277,16.968883 L 16.242371,16.968883 C 16.735812,16.968884 16.848181,16.905752 17.109809,16.779483 C 17.371429,16.65108 17.59063,16.54944 17.590634,16.309744 C 17.59063,16.063636 17.454851,15.875307 17.183295,15.744756 C 16.915043,15.612074 16.52923,15.545731 16.025854,15.545727 C 15.750981,15.545731 15.456239,15.564993 15.14163,15.60351 C 14.827016,15.642035 14.480943,15.701959 14.10341,15.783278 L 14.10341,15.20545 C 14.484255,15.136971 14.840263,15.085609 15.171435,15.051362 C 15.505915,15.017125 15.820526,15.000005 16.115271,15 C 16.876959,15.000005 17.479688,15.11236 17.92346,15.337067 C 18.367224,15.559642 18.589108,15.861396 18.589113,16.242332 C 18.589108,16.507708 18.383153,16.65001 18.148028,16.834056 C 17.912892,17.015967 17.578411,17.142233 17.144581,17.212854" display="inline" font-family="Bitstream Vera Sans" font-size="12.705" font-style="normal" font-weight="normal"/><g id="g7191" transform="matrix(1.4078801,0,0,0.9094001,-5.9596437,1.7091319)"><path id="path8061" fill="none" fill-rule="evenodd" stroke="#888a85" stroke-dasharray="none" stroke-linecap="round" stroke-linejoin="round" stroke-miterlimit="4" stroke-opacity="1" stroke-width="2.651" d="M 12.033359,9.6666671 C 11.540134,4.0437499 11.67349,3.1903214 11.85655,2.5666005 C 12.197624,1.4044973 13.089692,0.91483018 13.089692,5.3584501" display="inline"/><path id="path8059" fill="none" fill-opacity="1" fill-rule="evenodd" stroke="url(#linearGradient7201)" stroke-dasharray="none" stroke-linecap="round" stroke-linejoin="round" stroke-miterlimit="4" stroke-opacity="1" stroke-width=".884" d="M 12.033359,9.6666671 C 11.540134,4.0437499 11.629097,3.1903214 11.812157,2.5666005 C 12.153231,1.4044973 13.089692,0.87827578 13.089692,6.2206757" display="inline"/><path id="path8067" fill="url(#radialGradient7203)" fill-opacity="1" fill-rule="evenodd" stroke="none" stroke-dasharray="none" stroke-linecap="round" stroke-linejoin="round" stroke-miterlimit="4" stroke-opacity=".992" stroke-width="1" d="M -41.034289 6.6011076 A 1.4363106 1.4252621 0 1 1 -43.906911,6.6011076 A 1.4363106 1.4252621 0 1 1 -41.034289 6.6011076 z" display="inline" opacity=".754" transform="matrix(0.6962286,0,0,1.1693756,41.235911,-3.3858408)"/><path id="path8075" fill="#fff" fill-opacity="1" fill-rule="evenodd" stroke="none" stroke-dasharray="none" stroke-linecap="round" stroke-linejoin="round" stroke-miterlimit="4" stroke-opacity=".992" stroke-width="1" d="M -40.84375 6.078125 A 1.078125 1.015625 0 1 1 -43,6.078125 A 1.078125 1.015625 0 1 1 -40.84375 6.078125 z" display="inline" opacity=".836" transform="matrix(0.3314156,0,0,0.3518104,25.241629,0.21896)"/><path id="path8266" fill="#fff" fill-opacity="1" fill-rule="evenodd" stroke="none" stroke-dasharray="none" stroke-linecap="round" stroke-linejoin="round" stroke-miterlimit="4" stroke-opacity=".992" stroke-width="1" d="M -40.84375 6.078125 A 1.078125 1.015625 0 1 1 -43,6.078125 A 1.078125 1.015625 0 1 1 -40.84375 6.078125 z" display="inline" opacity=".836" transform="matrix(0.3314156,0,0,0.3518104,25.584205,7.504345)"/></g><g id="g8291" transform="matrix(0.6666667,0,0,0.6666667,0,1)"><path id="text7658" fill="#888a85" fill-opacity="1" stroke="none" stroke-linecap="butt" stroke-linejoin="miter" stroke-opacity="1" stroke-width="1" d="M 14.313417,17.957453 L 15.28495,17.957453 L 15.081595,19.071853 C 15.056144,19.211315 14.893389,19.312328 14.59333,19.374891 C 14.296789,19.437453 13.829954,19.468734 13.192826,19.468735 L 12.823221,19.468735 L 12.851049,19.316238 L 13.109772,19.316238 C 13.479377,19.316238 13.733974,19.300272 13.873564,19.268339 C 14.013033,19.237057 14.091865,19.171562 14.110061,19.071853 L 14.313417,17.957453 M 14.391191,17.531245 L 15.362725,17.531245 L 15.321162,17.759012 L 14.349628,17.759012 L 14.391191,17.531245" display="inline" font-family="Bitstream Vera Sans" font-size="4.653" font-style="normal" font-weight="normal"/><path id="text8279" fill="#888a85" fill-opacity="1" stroke="none" stroke-linecap="butt" stroke-linejoin="miter" stroke-opacity="1" stroke-width="1" d="M 35.994267,18.45991 L 36.008834,18.54789 L 31.541891,18.54789 C 31.604632,18.671712 31.82092,18.766208 32.190756,18.831377 C 32.564002,18.895895 33.072707,18.928154 33.716881,18.928154 C 34.090001,18.928154 34.449404,18.919682 34.795088,18.902738 C 35.144281,18.885794 35.488558,18.860378 35.827918,18.826489 L 35.85608,18.996582 C 35.512122,19.023953 35.158289,19.044807 34.794582,19.059144 C 34.430868,19.073482 34.060689,19.080651 33.684048,19.080651 C 32.740672,19.080651 31.984246,19.029818 31.414768,18.928154 C 30.848807,18.826489 30.551478,18.688982 30.522777,18.51563 C 30.493105,18.336415 30.730066,18.194346 31.233661,18.089422 C 31.740667,17.983848 32.437697,17.931061 33.324751,17.93106 C 34.120279,17.931061 34.756483,17.978635 35.233367,18.073781 C 35.713653,18.168278 35.967288,18.296987 35.994267,18.45991 M 35.013995,18.407123 C 34.990658,18.308718 34.828052,18.230189 34.526183,18.171535 C 34.227823,18.112884 33.839282,18.083558 33.36056,18.083556 C 32.81847,18.083558 32.388438,18.111906 32.070464,18.168603 C 31.756004,18.225301 31.582658,18.305134 31.550428,18.408101 L 35.013995,18.407123" display="inline" font-family="Bitstream Vera Sans" font-size="4.653" font-style="normal" font-weight="normal"/><path id="path8286" fill="#888a85" fill-opacity="1" stroke="none" stroke-linecap="butt" stroke-linejoin="miter" stroke-opacity="1" stroke-width="1" d="M 28.987451,18.391483 L 29.023191,19.052302 L 28.051657,19.052302 L 28.016235,18.397348 C 28.010626,18.293729 27.89731,18.216178 27.676288,18.164693 C 27.455256,18.11321 27.126499,18.087468 26.690017,18.087467 C 26.165527,18.087468 25.753595,18.118423 25.454222,18.180333 C 25.154844,18.242245 25.008046,18.326639 25.013829,18.433517 L 25.047295,19.052302 L 24.070481,19.052302 L 24.011269,17.957453 L 24.988082,17.957453 L 24.997281,18.127546 C 25.226043,18.061726 25.496185,18.012523 25.807709,17.979937 C 26.122749,17.947353 26.486192,17.931061 26.898041,17.93106 C 27.577407,17.931061 28.093448,17.970162 28.446167,18.048365 C 28.798841,18.125917 28.979269,18.24029 28.987451,18.391483" display="inline" font-family="Bitstream Vera Sans" font-size="4.653" font-style="normal" font-weight="normal"/><path id="path8289" fill="#888a85" fill-opacity="1" stroke="none" stroke-linecap="butt" stroke-linejoin="miter" stroke-opacity="1" stroke-width="1" d="M 17.102494,18.620228 L 17.149678,17.957453 L 18.121211,17.957453 L 18.074515,18.613385 C 18.067136,18.717005 18.170714,18.794882 18.385247,18.847018 C 18.599823,18.898502 18.925355,18.924244 19.361844,18.924244 C 19.886327,18.924244 20.302136,18.893288 20.609272,18.831377 C 20.919919,18.769466 21.079048,18.685072 21.086664,18.578193 L 21.130854,17.957453 L 22.102387,17.957453 L 22.024444,19.052302 L 21.052911,19.052302 L 21.064881,18.884164 C 20.824301,18.950637 20.54621,19.000166 20.23061,19.032751 C 19.918569,19.064684 19.556627,19.080651 19.144786,19.080651 C 18.465414,19.080651 17.95251,19.041549 17.606075,18.963345 C 17.259636,18.885142 17.091776,18.770769 17.102494,18.620228" display="inline" font-family="Bitstream Vera Sans" font-size="4.653" font-style="normal" font-weight="normal"/></g><g id="g6013" display="inline" transform="matrix(-1.4078801,0,0,0.9094001,38.928717,1.7091319)"><path id="path6015" fill="none" fill-rule="evenodd" stroke="#888a85" stroke-dasharray="none" stroke-linecap="round" stroke-linejoin="round" stroke-miterlimit="4" stroke-opacity="1" stroke-width="2.651" d="M 12.033359,9.6666671 C 11.540134,4.0437499 11.67349,3.1903214 11.85655,2.5666005 C 12.197624,1.4044973 13.089692,0.91483018 13.089692,5.3584501" display="inline"/><path id="path6017" fill="none" fill-opacity="1" fill-rule="evenodd" stroke="url(#linearGradient6025)" stroke-dasharray="none" stroke-linecap="round" stroke-linejoin="round" stroke-miterlimit="4" stroke-opacity="1" stroke-width=".884" d="M 12.033359,9.6666671 C 11.540134,4.0437499 11.629097,3.1903214 11.812157,2.5666005 C 12.153231,1.4044973 13.089692,0.85348221 13.089692,6.2206757" display="inline"/><path id="path6019" fill="url(#radialGradient6027)" fill-opacity="1" fill-rule="evenodd" stroke="none" stroke-dasharray="none" stroke-linecap="round" stroke-linejoin="round" stroke-miterlimit="4" stroke-opacity=".992" stroke-width="1" d="M -41.034289 6.6011076 A 1.4363106 1.4252621 0 1 1 -43.906911,6.6011076 A 1.4363106 1.4252621 0 1 1 -41.034289 6.6011076 z" display="inline" opacity=".754" transform="matrix(0.6962286,0,0,1.1693756,41.235911,-3.3858408)"/><path id="path6021" fill="#fff" fill-opacity="1" fill-rule="evenodd" stroke="none" stroke-dasharray="none" stroke-linecap="round" stroke-linejoin="round" stroke-miterlimit="4" stroke-opacity=".992" stroke-width="1" d="M -40.84375 6.078125 A 1.078125 1.015625 0 1 1 -43,6.078125 A 1.078125 1.015625 0 1 1 -40.84375 6.078125 z" display="inline" opacity=".836" transform="matrix(0.3314156,0,0,0.3518104,25.951917,0.21896)"/><path id="path6023" fill="#fff" fill-opacity="1" fill-rule="evenodd" stroke="none" stroke-dasharray="none" stroke-linecap="round" stroke-linejoin="round" stroke-miterlimit="4" stroke-opacity=".992" stroke-width="1" d="M -40.84375 6.078125 A 1.078125 1.015625 0 1 1 -43,6.078125 A 1.078125 1.015625 0 1 1 -40.84375 6.078125 z" display="inline" opacity=".836" transform="matrix(0.3314156,0,0,0.3518104,26.294493,7.504345)"/></g><rect id="rect6029" width="4" height="1" x="9" y="11" fill="#fff" fill-opacity="1" fill-rule="evenodd" stroke="none" stroke-dasharray="none" stroke-linecap="round" stroke-linejoin="round" stroke-miterlimit="4" stroke-opacity=".992" stroke-width="1" opacity="1"/><rect id="rect6031" width="4" height="1" x="20" y="11" fill="#fff" fill-opacity="1" fill-rule="evenodd" stroke="none" stroke-dasharray="none" stroke-linecap="round" stroke-linejoin="round" stroke-miterlimit="4" stroke-opacity=".992" stroke-width="1" display="inline" opacity="1"/></g><g id="g5668"><path id="path8162" fill="url(#radialGradient5666)" fill-opacity="1" fill-rule="nonzero" stroke="none" stroke-dasharray="none" stroke-dashoffset="0" stroke-linecap="butt" stroke-linejoin="miter" stroke-miterlimit="4" stroke-opacity="1" stroke-width="1" marker-end="none" marker-mid="none" marker-start="none" d="M 28.125 27.875 A 12.125 3.5 0 1 1 3.875,27.875 A 12.125 3.5 0 1 1 28.125 27.875 z" color="#000" display="inline" opacity=".4" overflow="visible" transform="matrix(1.1987318,0,0,1.2691846,-2.6595276,5.6744307)" visibility="visible" style="marker:none"/><path id="path8166" fill="url(#radialGradient5620)" fill-opacity="1" stroke="#babdb6" stroke-dasharray="none" stroke-linecap="round" stroke-linejoin="round" stroke-miterlimit="4" stroke-opacity="1" stroke-width=".559" d="M 15.092248 10.078017 A 6.4298334 7.0996075 0 1 1 2.2325811,10.078017 A 6.4298334 7.0996075 0 1 1 15.092248 10.078017 z" transform="matrix(1.8761951,0,0,1.706036,0.2192386,11.690639)"/><path id="path8168" fill="#000" fill-opacity="1" stroke="none" stroke-dasharray="none" stroke-linecap="round" stroke-linejoin="round" stroke-miterlimit="4" stroke-opacity="1" stroke-width="1" d="M 16.498553,16.660695 C 9.9203373,16.660695 4.581027,21.978064 4.581027,28.556592 C 4.581027,28.823504 4.6070003,29.094323 4.6242848,29.356862 C 5.0398497,23.155307 10.191989,18.261234 16.498553,18.261234 C 22.805116,18.261234 27.957255,23.155308 28.37282,29.356862 C 28.390103,29.094323 28.416078,28.823504 28.416078,28.556592 C 28.416078,21.978065 23.076769,16.660694 16.498553,16.660695 z" opacity=".119"/><path id="path8170" fill="url(#radialGradient5635)" fill-opacity="1" stroke="#ce5c00" stroke-dasharray="none" stroke-linecap="round" stroke-linejoin="round" stroke-miterlimit="4" stroke-opacity="1" stroke-width="1" d="M 15.942731,14.008124 C 8.0088088,14.309978 1.6394982,20.860499 1.6394982,28.867005 C 1.6394982,37.065667 8.3004411,43.725886 16.499999,43.725886 C 24.699556,43.725886 31.360502,37.06567 31.360502,28.867005 C 31.360502,20.668342 24.699556,14.008124 16.499999,14.008124 C 16.307822,14.008124 16.133145,14.000879 15.942731,14.008124 z M 15.896291,16.9799 C 16.098929,16.969627 16.294822,16.9799 16.499999,16.9799 C 23.065696,16.9799 28.3884,22.307846 28.3884,28.867005 C 28.3884,35.426164 23.065696,40.754109 16.499999,40.754109 C 9.9343016,40.754109 4.6115981,35.426164 4.6115981,28.867005 C 4.6115981,22.512819 9.6145413,17.298347 15.896291,16.9799 z"/><path id="path8172" fill="none" fill-opacity="1" fill-rule="evenodd" stroke="url(#linearGradient5624)" stroke-dasharray="none" stroke-dashoffset="0" stroke-linecap="round" stroke-linejoin="round" stroke-miterlimit="4" stroke-opacity="1" stroke-width="1.429" marker-end="none" marker-mid="none" marker-start="none" d="M 43.375 24.75 A 19.875 19.875 0 1 1 3.625,24.75 A 19.875 19.875 0 1 1 43.375 24.75 z" color="#000" display="inline" opacity=".51" overflow="visible" transform="matrix(0.6999067,0,0,0.6999067,5.0759294e-2,11.583051)" visibility="visible" style="marker:none"/><g id="g5661" transform="matrix(0.2474797,0.9688931,-0.9688931,0.2474797,41.810803,6.0823489)"><path id="path8174" fill="#555753" fill-opacity="1" fill-rule="evenodd" stroke="#2e3436" stroke-dasharray="none" stroke-linecap="round" stroke-linejoin="round" stroke-miterlimit="4" stroke-opacity="1" stroke-width="1" d="M 15.969847,31.522715 L 23.656575,30.899171 L 16.770523,29.411856 L 15.969847,31.522715 z"/><path id="path8176" fill="#555753" fill-opacity="1" fill-rule="evenodd" stroke="#2e3436" stroke-dasharray="none" stroke-linecap="round" stroke-linejoin="round" stroke-miterlimit="4" stroke-opacity="1" stroke-width="1" d="M 16.098708,20.536714 L 15.098324,30.853755 L 17.226678,30.100817 L 16.098708,20.536714 z"/><path id="path8178" fill="#555753" fill-opacity="1" fill-rule="evenodd" stroke="#2e3436" stroke-dasharray="none" stroke-dashoffset="0" stroke-linecap="round" stroke-linejoin="round" stroke-miterlimit="4" stroke-opacity="1" stroke-width="1.445" marker-end="none" marker-mid="none" marker-start="none" d="M 26.25 25.0625 A 2.6875 2.6875 0 1 1 20.875,25.0625 A 2.6875 2.6875 0 1 1 26.25 25.0625 z" color="#000" display="inline" overflow="visible" transform="matrix(0.6921249,0,0,0.6921249,-9.08161e-2,12.965226)" visibility="visible" style="marker:none"/></g><path id="path8180" fill="#fff" fill-opacity="1" fill-rule="evenodd" stroke="none" stroke-dasharray="none" stroke-dashoffset="0" stroke-linecap="round" stroke-linejoin="round" stroke-miterlimit="4" stroke-opacity="1" stroke-width="1" marker-end="none" marker-mid="none" marker-start="none" d="M 23.5 23.65625 A 1.25 1.25 0 1 1 21,23.65625 A 1.25 1.25 0 1 1 23.5 23.65625 z" color="#000" display="inline" opacity=".474" overflow="visible" transform="matrix(-0.4152749,0,0,-0.4152749,25.170185,38.726041)" visibility="visible" style="marker:none"/><path id="path8182" fill="none" fill-opacity="1" fill-rule="evenodd" stroke="url(#linearGradient5626)" stroke-dasharray="none" stroke-dashoffset=".7" stroke-linecap="round" stroke-linejoin="round" stroke-miterlimit="4" stroke-opacity="1" stroke-width=".856" d="M 40.835417 -46.711533 A 17.103146 7.115262 0 1 1 6.6291256,-46.711533 A 17.103146 7.115262 0 1 1 40.835417 -46.711533 z" opacity=".5" transform="matrix(0.7536043,0,0,1.8114588,-1.3645614,113.50012)"/></g></g></svg>